<svg xmlns="http://www.w3.org/2000/svg" xmlns:xlink="http://www.w3.org/1999/xlink" width="500" zoomAndPan="magnify" viewBox="0 0 375 374.999991" height="500" preserveAspectRatio="xMidYMid meet" version="1.0"><path fill="#e9b44d" d="M 158.929688 359.941406 C 190.023438 372.4375 225.175781 357.320312 237.3125 344.230469 C 249.449219 331.140625 209.90625 263.5625 193.324219 267.675781 C 189.769531 268.585938 186.320312 269.792969 182.972656 271.296875 C 179.625 272.800781 176.433594 274.578125 173.390625 276.628906 C 170.351562 278.683594 167.507812 280.980469 164.859375 283.519531 C 162.214844 286.0625 159.804688 288.808594 157.628906 291.765625 C 153.59375 286.570312 149.367188 280.945312 145.050781 274.980469 L 112.007812 318.46875 C 124.542969 334.875 139.878906 352.289062 158.929688 359.941406 Z M 158.929688 359.941406 " fill-opacity="1" fill-rule="nonzero"/><path fill="#e9b44d" d="M 94.367188 192.953125 C 91.390625 187.035156 88.605469 181.167969 86.078125 175.394531 C 107.046875 171.003906 123.375 158.757812 117.652344 139.007812 C 110.355469 113.78125 80.601562 64.488281 60.179688 76.214844 C 29.75 93.691406 20.320312 113.066406 19.480469 136.597656 C 18.761719 156.769531 26.957031 176.113281 35.75 194.285156 C 43.144531 209.578125 51.070312 224.59375 59.523438 239.339844 Z M 94.367188 192.953125 " fill-opacity="1" fill-rule="nonzero"/><path fill="#e9b44d" d="M 212.277344 120.914062 C 214.03125 121.875 215.910156 122.351562 217.910156 122.339844 C 219.371094 122.335938 220.789062 122.089844 222.171875 121.605469 C 223.8125 121.0625 225.269531 120.203125 226.542969 119.035156 C 227.820312 117.871094 228.800781 116.492188 229.488281 114.90625 C 231.496094 110.074219 230.613281 105.046875 227.132812 101.457031 C 223.472656 97.679688 217.691406 96.257812 213.078125 98.003906 C 208.730469 99.652344 206.089844 103.722656 205.835938 109.179688 C 205.789062 110.355469 205.898438 111.519531 206.167969 112.667969 C 206.4375 113.816406 206.855469 114.910156 207.421875 115.941406 C 207.988281 116.976562 208.683594 117.917969 209.507812 118.761719 C 210.332031 119.605469 211.253906 120.324219 212.277344 120.914062 Z M 212.277344 120.914062 " fill-opacity="1" fill-rule="nonzero"/><path fill="#e9b44d" d="M 261.929688 122.105469 C 262.679688 122.261719 263.441406 122.335938 264.207031 122.335938 C 265.515625 122.324219 266.789062 122.117188 268.03125 121.707031 C 269.273438 121.296875 270.425781 120.707031 271.480469 119.9375 C 272.855469 118.980469 273.976562 117.789062 274.851562 116.363281 C 275.726562 114.9375 276.277344 113.394531 276.507812 111.738281 C 276.738281 110.015625 276.605469 108.316406 276.109375 106.648438 C 275.617188 104.976562 274.804688 103.480469 273.675781 102.15625 C 272.65625 100.972656 271.46875 100 270.109375 99.234375 C 268.75 98.46875 267.300781 97.960938 265.761719 97.703125 C 259.261719 96.605469 253.714844 100.476562 252.277344 107.121094 C 251.945312 108.765625 251.945312 110.414062 252.269531 112.0625 C 252.59375 113.710938 253.21875 115.234375 254.148438 116.636719 C 255.03125 118.027344 256.148438 119.195312 257.496094 120.140625 C 258.84375 121.089844 260.324219 121.742188 261.929688 122.105469 Z M 261.929688 122.105469 " fill-opacity="1" fill-rule="nonzero"/><path fill="#e9b44d" d="M 310.621094 122.320312 C 312.691406 122.335938 314.628906 121.839844 316.4375 120.832031 C 317.003906 120.496094 317.539062 120.117188 318.046875 119.699219 C 318.550781 119.277344 319.019531 118.816406 319.453125 118.320312 C 319.886719 117.824219 320.277344 117.296875 320.625 116.738281 C 320.972656 116.179688 321.273438 115.597656 321.527344 114.992188 C 321.78125 114.382812 321.988281 113.761719 322.144531 113.121094 C 322.296875 112.480469 322.402344 111.835938 322.453125 111.179688 C 322.503906 110.523438 322.503906 109.867188 322.453125 109.210938 C 322.398438 108.554688 322.292969 107.90625 322.136719 107.269531 C 320.703125 101.894531 317.171875 98.554688 312.449219 98.113281 C 307.289062 97.632812 301.832031 100.839844 299.476562 105.75 C 297.363281 110.152344 298.261719 115.007812 301.875 118.738281 C 303.035156 119.894531 304.371094 120.785156 305.886719 121.40625 C 307.40625 122.027344 308.984375 122.332031 310.621094 122.320312 Z M 310.621094 122.320312 " fill-opacity="1" fill-rule="nonzero"/><path fill="#ffffff" d="M 57.785156 242.679688 C 58.230469 242.910156 58.699219 243.046875 59.195312 243.089844 C 59.691406 243.132812 60.179688 243.078125 60.652344 242.929688 C 61.128906 242.777344 61.558594 242.542969 61.941406 242.222656 C 62.320312 241.902344 62.628906 241.519531 62.859375 241.078125 C 69.367188 228.570312 85.332031 207.9375 96.160156 196.515625 C 99.507812 192.980469 102.4375 190.304688 105.839844 188.726562 C 109.359375 187.09375 113.160156 187.023438 115.746094 188.535156 C 119.34375 190.636719 120.59375 195.542969 120.238281 199.476562 C 119.789062 204.386719 117.378906 209.164062 115.046875 213.78125 C 114.859375 214.152344 114.738281 214.546875 114.679688 214.957031 C 114.621094 215.367188 114.632812 215.777344 114.710938 216.1875 C 114.789062 216.597656 114.933594 216.980469 115.140625 217.34375 C 115.34375 217.703125 115.605469 218.019531 115.917969 218.296875 C 116.226562 218.570312 116.578125 218.789062 116.960938 218.949219 C 117.34375 219.109375 117.746094 219.203125 118.160156 219.226562 C 118.574219 219.253906 118.984375 219.214844 119.382812 219.105469 C 119.785156 218.996094 120.160156 218.828125 120.503906 218.59375 C 122.8125 217.039062 125.183594 216.5625 127.550781 217.171875 C 128.957031 217.582031 130.222656 218.261719 131.34375 219.203125 C 132.464844 220.148438 133.351562 221.277344 133.996094 222.59375 C 136.636719 227.777344 135.660156 234.675781 131.820312 237.964844 C 131.492188 238.246094 131.222656 238.570312 131.007812 238.941406 C 130.792969 239.3125 130.648438 239.710938 130.570312 240.132812 C 130.492188 240.554688 130.484375 240.976562 130.550781 241.402344 C 130.617188 241.828125 130.753906 242.226562 130.957031 242.605469 C 131.160156 242.984375 131.421875 243.316406 131.738281 243.605469 C 132.058594 243.894531 132.414062 244.121094 132.808594 244.285156 C 133.207031 244.453125 133.617188 244.546875 134.046875 244.574219 C 134.472656 244.597656 134.894531 244.550781 135.308594 244.433594 C 139.734375 243.15625 144.683594 246.820312 146.359375 250.910156 C 148.785156 256.832031 146.609375 263.484375 145.097656 266.917969 C 143.339844 270.90625 140.917969 274.570312 138.351562 278.449219 C 137.339844 279.976562 136.296875 281.554688 135.296875 283.152344 C 124.65625 300.1875 79.496094 349.617188 69.378906 359.847656 C 69.027344 360.199219 68.761719 360.609375 68.574219 361.070312 C 68.386719 361.53125 68.292969 362.011719 68.296875 362.507812 C 68.300781 363.007812 68.398438 363.488281 68.589844 363.945312 C 68.785156 364.40625 69.058594 364.808594 69.410156 365.160156 C 69.765625 365.507812 70.175781 365.777344 70.636719 365.96875 C 71.097656 366.15625 71.574219 366.25 72.074219 366.246094 C 72.570312 366.242188 73.050781 366.144531 73.511719 365.953125 C 73.96875 365.761719 74.375 365.488281 74.726562 365.132812 C 85.316406 354.425781 130.554688 304.9375 141.679688 287.136719 C 142.625 285.625 143.640625 284.085938 144.625 282.601562 C 147.25 278.628906 149.96875 274.523438 151.980469 269.949219 C 155.421875 262.128906 155.898438 254.359375 153.320312 248.0625 C 152.789062 246.773438 152.121094 245.558594 151.320312 244.417969 C 150.515625 243.28125 149.597656 242.246094 148.5625 241.3125 C 147.527344 240.378906 146.402344 239.570312 145.1875 238.890625 C 143.972656 238.207031 142.695312 237.671875 141.359375 237.273438 C 141.960938 235.832031 142.402344 234.34375 142.683594 232.804688 C 142.964844 231.265625 143.074219 229.71875 143.019531 228.15625 C 142.960938 226.59375 142.738281 225.054688 142.34375 223.539062 C 141.953125 222.027344 141.402344 220.574219 140.695312 219.179688 C 140.132812 218.054688 139.460938 217.003906 138.675781 216.019531 C 137.894531 215.039062 137.015625 214.148438 136.046875 213.347656 C 135.078125 212.546875 134.035156 211.859375 132.921875 211.277344 C 131.808594 210.695312 130.648438 210.234375 129.4375 209.894531 C 128.109375 209.550781 126.757812 209.382812 125.386719 209.394531 C 126.613281 206.425781 127.390625 203.347656 127.726562 200.15625 C 128.425781 192.46875 125.210938 185.359375 119.542969 182.042969 C 114.792969 179.265625 108.484375 179.210938 102.679688 181.902344 C 97.929688 184.105469 94.117188 187.742188 90.703125 191.34375 C 79.574219 203.085938 63.210938 224.113281 56.1875 237.609375 C 55.957031 238.050781 55.820312 238.519531 55.777344 239.015625 C 55.734375 239.511719 55.789062 240 55.9375 240.472656 C 56.089844 240.949219 56.324219 241.378906 56.644531 241.761719 C 56.964844 242.140625 57.34375 242.449219 57.785156 242.679688 Z M 57.785156 242.679688 " fill-opacity="1" fill-rule="nonzero"/><path fill="#ffffff" d="M 41.261719 208.742188 C 36.546875 213.765625 33.1875 220.851562 31.203125 225.910156 C 28.84375 231.890625 27.167969 238.058594 26.175781 244.414062 C 25.8125 246.953125 25.515625 249.316406 25.226562 251.601562 C 23.199219 267.695312 21.734375 279.324219 0.820312 311.925781 C 0.550781 312.34375 0.371094 312.800781 0.28125 313.289062 C 0.191406 313.78125 0.203125 314.269531 0.308594 314.757812 C 0.414062 315.246094 0.609375 315.695312 0.894531 316.105469 C 1.179688 316.515625 1.53125 316.855469 1.953125 317.125 C 2.371094 317.394531 2.828125 317.570312 3.316406 317.660156 C 3.808594 317.746094 4.296875 317.738281 4.785156 317.632812 C 5.273438 317.523438 5.722656 317.328125 6.132812 317.042969 C 6.539062 316.757812 6.878906 316.40625 7.148438 315.984375 C 28.976562 281.953125 30.53125 269.617188 32.6875 252.539062 C 32.972656 250.285156 33.265625 247.957031 33.621094 245.480469 C 35.0625 235.410156 40.152344 220.917969 46.746094 213.886719 C 47.085938 213.523438 47.34375 213.109375 47.519531 212.640625 C 47.695312 212.175781 47.777344 211.691406 47.761719 211.195312 C 47.746094 210.695312 47.632812 210.21875 47.429688 209.765625 C 47.222656 209.3125 46.9375 208.914062 46.574219 208.570312 C 46.210938 208.230469 45.796875 207.972656 45.328125 207.796875 C 44.863281 207.621094 44.378906 207.539062 43.882812 207.554688 C 43.382812 207.570312 42.90625 207.683594 42.453125 207.886719 C 42 208.09375 41.601562 208.378906 41.261719 208.742188 Z M 41.261719 208.742188 " fill-opacity="1" fill-rule="nonzero"/><path fill="#ffffff" d="M 302.621094 9.429688 C 281.9375 3.359375 259.457031 2.5625 237.617188 7.125 C 216.980469 11.4375 198.207031 20.433594 184.761719 32.453125 C 162.160156 52.664062 149.015625 84.027344 150.460938 114.308594 C 151.621094 138.667969 160.246094 161.984375 174.746094 179.964844 C 190.027344 198.917969 211.097656 211.40625 235.808594 216.199219 C 236.550781 221.871094 236.601562 227.546875 235.953125 233.230469 C 235.304688 238.914062 233.984375 244.4375 231.988281 249.796875 C 231.859375 250.140625 231.78125 250.5 231.757812 250.867188 C 231.734375 251.234375 231.761719 251.597656 231.847656 251.960938 C 231.929688 252.320312 232.0625 252.660156 232.246094 252.980469 C 232.429688 253.300781 232.65625 253.585938 232.921875 253.839844 C 233.191406 254.09375 233.488281 254.304688 233.820312 254.46875 C 234.148438 254.636719 234.496094 254.75 234.859375 254.816406 C 235.222656 254.878906 235.589844 254.890625 235.953125 254.84375 C 236.320312 254.800781 236.671875 254.707031 237.011719 254.558594 C 255.945312 246.308594 268.375 234.808594 275.957031 218.484375 C 300.566406 214.949219 324.167969 202.773438 342.625 184.050781 C 362.078125 164.308594 373.289062 139.621094 374.195312 114.53125 C 375.027344 91.617188 369.082031 68.90625 357.464844 50.578125 C 344.707031 30.445312 325.738281 16.21875 302.621094 9.429688 Z M 366.683594 114.261719 C 365.847656 137.464844 355.398438 160.375 337.269531 178.773438 C 319.730469 196.570312 296.277344 208.429688 272.921875 211.304688 C 272.261719 211.386719 271.664062 211.628906 271.128906 212.03125 C 270.59375 212.429688 270.195312 212.9375 269.929688 213.550781 C 264.167969 226.921875 255.292969 236.53125 241.65625 243.949219 C 242.929688 238.78125 243.667969 233.535156 243.867188 228.214844 C 244.066406 222.894531 243.722656 217.605469 242.839844 212.355469 C 242.773438 211.972656 242.652344 211.605469 242.472656 211.257812 C 242.292969 210.914062 242.066406 210.601562 241.789062 210.324219 C 241.515625 210.050781 241.203125 209.820312 240.855469 209.640625 C 240.511719 209.464844 240.144531 209.339844 239.757812 209.277344 C 215.71875 205.199219 195.261719 193.433594 180.601562 175.25 C 167.09375 158.496094 159.058594 136.730469 157.972656 113.953125 C 156.632812 85.878906 168.816406 56.796875 189.773438 38.058594 C 202.25 26.90625 219.789062 18.535156 239.15625 14.484375 C 247.933594 12.648438 256.804688 11.726562 265.769531 11.722656 C 277.582031 11.699219 289.160156 13.339844 300.503906 16.644531 C 321.84375 22.910156 339.34375 36.035156 351.117188 54.605469 C 361.929688 71.664062 367.457031 92.851562 366.683594 114.261719 Z M 366.683594 114.261719 " fill-opacity="1" fill-rule="nonzero"/></svg>